<?xml version="1.0" encoding="UTF-8"?>
<svg width="48px" height="49px" viewBox="0 0 48 49" version="1.1" xmlns="http://www.w3.org/2000/svg" xmlns:xlink="http://www.w3.org/1999/xlink">
    <title>编组 18@4x</title>
    <defs>
        <linearGradient x1="34.4799852%" y1="5.12465374%" x2="76.2725623%" y2="86.0714295%" id="linearGradient-1">
            <stop stop-color="#FD8C02" offset="0%"></stop>
            <stop stop-color="#F85F06" offset="100%"></stop>
        </linearGradient>
    </defs>
    <g id="页面-1" stroke="none" stroke-width="1" fill="none" fill-rule="evenodd">
        <g id="图标" transform="translate(-549.000000, -115.000000)">
            <g id="编组-18" transform="translate(549.000000, 115.216717)">
                <rect id="矩形" x="0" y="0" width="48" height="48"></rect>
                <path d="M29,5 C36.7319865,5 43,11.2680135 43,19 L43,24 C43,31.7319865 36.7319865,38 29,38 L22.5001834,38.0004871 C21.1318514,39.8218801 18.953508,41 16.5,41 C12.4596401,41 9.16548447,37.8051194 9.00604351,33.8038684 C6.52815356,31.2786182 5,27.8177688 5,24 L5,19 C5,11.2680135 11.2680135,5 19,5 L29,5 Z M15.5,19 C14.1192881,19 13,20.1192881 13,21.5 C13,22.8807119 14.1192881,24 15.5,24 C16.8807119,24 18,22.8807119 18,21.5 C18,20.1192881 16.8807119,19 15.5,19 Z M24.5,19 C23.1192881,19 22,20.1192881 22,21.5 C22,22.8807119 23.1192881,24 24.5,24 C25.8807119,24 27,22.8807119 27,21.5 C27,20.1192881 25.8807119,19 24.5,19 Z M33.5,19 C32.1192881,19 31,20.1192881 31,21.5 C31,22.8807119 32.1192881,24 33.5,24 C34.8807119,24 36,22.8807119 36,21.5 C36,20.1192881 34.8807119,19 33.5,19 Z" id="形状结合" fill="url(#linearGradient-1)" fill-rule="nonzero"></path>
            </g>
        </g>
    </g>
</svg>